<?xml version="1.0" standalone="no"?>
<!DOCTYPE svg PUBLIC "-//W3C//DTD SVG 20010904//EN"
 "http://www.w3.org/TR/2001/REC-SVG-20010904/DTD/svg10.dtd">
<svg version="1.0" xmlns="http://www.w3.org/2000/svg"
 width="400.000000pt" height="400.000000pt" viewBox="0 0 400.000000 400.000000"
 preserveAspectRatio="xMidYMid meet">
<metadata>
Created by potrace 1.11, written by Peter Selinger 2001-2013
</metadata>
<g transform="translate(0.000000,400.000000) scale(0.100000,-0.100000)"
fill="#000000" stroke="none">
<path d="M0 2000 l0 -2000 2000 0 2000 0 0 2000 0 2000 -2000 0 -2000 0 0
-2000z m2835 942 c151 -49 241 -139 295 -298 11 -31 20 -60 20 -64 0 -7 -192
-80 -209 -80 -5 0 -18 22 -29 50 -34 82 -76 133 -134 165 -51 29 -59 30 -173
30 -105 0 -127 -3 -173 -24 -62 -28 -123 -93 -140 -149 -15 -48 -16 -174 -2
-223 14 -48 68 -109 126 -141 27 -14 137 -56 244 -93 242 -83 317 -121 395
-202 101 -103 138 -242 117 -432 -26 -224 -134 -357 -343 -421 -112 -34 -323
-40 -441 -11 -196 46 -315 150 -374 324 -13 39 -23 71 -21 72 2 2 157 61 210
81 11 4 17 1 17 -7 0 -25 57 -135 88 -171 18 -19 60 -48 94 -64 59 -27 71 -29
193 -29 122 0 133 2 187 28 67 33 123 94 140 151 6 23 12 84 11 136 0 189 -49
231 -418 359 -99 35 -206 77 -239 94 -139 74 -214 182 -234 337 -20 163 17
332 96 427 69 85 220 160 352 177 83 10 285 -2 345 -22z m-1035 -97 l0 -115
-405 0 -405 0 0 -315 0 -315 355 0 355 0 0 -110 0 -110 -355 0 -355 0 0 -305
0 -305 405 0 405 0 0 -110 0 -110 -530 0 -530 0 0 955 0 955 530 0 530 0 0
-115z"/>
</g>
</svg>
